<svg fill="#ffffff" id="Solid" height="512" viewBox="0 0 512 512" width="512" xmlns="http://www.w3.org/2000/svg"><path d="m421.952 88-19.2 48h42.496l-19.2-48z"/><path d="m400 152h16v208h-16z"/><path d="m400 376h48v16h-48z"/><path d="m400 416a24 24 0 0 0 48 0v-8h-48z"/><path d="m432 152h16v208h-16z"/><path d="m496 128a8 8 0 0 1 -8 8 229.174 229.174 0 0 1 -26.07-1.38l-1.83-4.56-5.02-12.54a199.536 199.536 0 0 0 32.92 2.48 8 8 0 0 1 8 8z"/><path d="m400.24 99.22-5.95 14.86c-15.56-5.78-32.78-10.08-60.96-10.08-37.07 0-55.14 7.48-74.27 15.39-19.73 8.17-40.14 16.61-80.4 16.61s-60.66-8.44-80.39-16.61c-19.13-7.91-37.19-15.39-74.27-15.39a8 8 0 0 1 0-16c40.25 0 60.66 8.44 80.39 16.61 19.13 7.91 37.19 15.39 74.27 15.39s55.15-7.48 74.28-15.39c19.73-8.17 40.14-16.61 80.39-16.61 30.82 0 50.13 4.97 66.91 11.22z"/><path d="m496 208a8 8 0 0 1 -8 8 234.359 234.359 0 0 1 -24-1.15v-16.09a215.607 215.607 0 0 0 24 1.24 8 8 0 0 1 8 8z"/><path d="m384 173.96v16.63c-11.16-3.36-26.81-6.59-50.67-6.59-37.07 0-55.14 7.48-74.27 15.39-19.73 8.17-40.14 16.61-80.4 16.61s-60.66-8.44-80.39-16.61c-19.13-7.91-37.19-15.39-74.27-15.39a8 8 0 0 1 0-16c40.25 0 60.66 8.44 80.39 16.61 19.13 7.91 37.19 15.39 74.27 15.39s55.15-7.48 74.28-15.39c19.73-8.17 40.14-16.61 80.39-16.61 19.23 0 35.3 1.87 50.67 5.96z"/><path d="m496 288a8 8 0 0 1 -8 8 234.359 234.359 0 0 1 -24-1.15v-16.09a215.607 215.607 0 0 0 24 1.24 8 8 0 0 1 8 8z"/><path d="m384 253.96v16.63c-11.16-3.36-26.81-6.59-50.67-6.59-37.07 0-55.14 7.48-74.27 15.39-19.73 8.17-40.14 16.61-80.4 16.61s-60.66-8.44-80.39-16.61c-19.13-7.91-37.19-15.39-74.27-15.39a8 8 0 0 1 0-16c40.25 0 60.66 8.44 80.39 16.61 19.13 7.91 37.19 15.39 74.27 15.39s55.15-7.48 74.28-15.39c19.73-8.17 40.14-16.61 80.39-16.61 19.23 0 35.3 1.87 50.67 5.96z"/><path d="m136 200a24 24 0 1 1 24-24 24.028 24.028 0 0 1 -24 24zm0-32a8 8 0 1 0 8 8 8.009 8.009 0 0 0 -8-8z"/><path d="m216 184a24 24 0 1 1 24-24 24.028 24.028 0 0 1 -24 24zm0-32a8 8 0 1 0 8 8 8.009 8.009 0 0 0 -8-8z"/><path d="m160 176h-16v-80a8 8 0 0 1 6.431-7.845l80-16a8 8 0 0 1 9.569 7.845v80h-16v-70.241l-64 12.8z"/><path d="m40 328a24 24 0 1 1 24-24 24.028 24.028 0 0 1 -24 24zm0-32a8 8 0 1 0 8 8 8.009 8.009 0 0 0 -8-8z"/><path d="m48 304v-80a8 8 0 0 1 16 0v80z"/><path d="m280 328a24 24 0 1 1 24-24 24.028 24.028 0 0 1 -24 24zm0-32a8 8 0 1 0 8 8 8.009 8.009 0 0 0 -8-8z"/><path d="m288 304v-80a8 8 0 0 1 6.06-7.761l64-16a8 8 0 0 1 3.88 15.522l-57.94 14.485v73.754z"/></svg>