<?xml version="1.0" encoding="utf-8"?>
<!-- Generator: Adobe Illustrator 25.2.0, SVG Export Plug-In . SVG Version: 6.00 Build 0)  -->
<svg version="1.1" id="Capa_1" xmlns="http://www.w3.org/2000/svg" xmlns:xlink="http://www.w3.org/1999/xlink" x="0px" y="0px"
	 viewBox="0 0 512 512" style="enable-background:new 0 0 512 512;" xml:space="preserve">
<style type="text/css">
	.st0{fill:#FFFFFF;}
</style>
<g>
	<path class="st0" d="M119.1,298.7c11.6,8,32.2,29.1,34.9,75.7c3.4,59.5,27,93.8,27.3,94.1l0.3,0.3c13.2,21.1,40.5,39.5,71.4,33.4
		c25.4-4.9,42.6-17.5,51.2-37.4c4-9.2,5.8-19,5.5-28.8L268,92.5C261.9,51.1,333.6,30,353.6,25l-3.7-10.7
		c-26.7,4.9-108.8,23.9-105.4,71.4c0,0,0,0,0,0.3l9.8,308c0.6,7.7,2.1,29.7-13.2,35.6c-1.2,0.3-2.5,0.6-3.7,0.9
		c-4,0.6-8-0.6-10.4-3.4c-5.8-5.8-8.6-18.1-7-31.3c8.9-68-14.7-123.2-21.8-138.2L119.1,298.7L119.1,298.7z M250.9,96.8
		c-1.2-3.4,0.6-7,3.7-8.3c3.4-1.2,7,0.6,8.3,3.7c1.2,3.1-0.6,7-3.7,8.3c-0.9,0.3-2.1,0.6-3.1,0.3C253.6,100.4,251.8,98.9,250.9,96.8
		z M259.5,154.4c-3.4-0.6-5.2-4-5.5-7c0.6-3.4,4-5.8,7.7-5.5c3.4,0.6,5.8,3.7,5.5,7.4c-0.3,2.1-1.8,4.3-4,4.9
		C261.6,154.4,260.7,154.7,259.5,154.4L259.5,154.4z M263.1,215.1L263.1,215.1c-3.7-0.6-5.8-3.7-5.5-7.4c0.3-1.5,1.2-3.1,2.8-4.3
		c1.5-0.9,3.1-1.5,4.9-1.2l0,0c3.4,0.6,5.8,3.7,5.2,7.4c-0.3,2.1-1.8,4.3-4.3,4.9C265.3,215.1,264.1,215.1,263.1,215.1L263.1,215.1z
		 M264.7,287.1c0.3-1.5,1.2-3.1,2.5-4.3c2.8-2.1,6.7-1.5,8.9,1.5c2.1,2.8,1.5,6.7-1.5,8.9c-3.1,2.1-6.7,1.5-8.9-1.5
		C265,290.5,264.7,288.6,264.7,287.1z"/>
	<path class="st0" d="M358.8,12.5l4.3,12.3c1.2,0.3,2.8,0.3,4,0.3c17.8-3.1,37.1-7,46.9-9.5c-2.8-0.3-5.8-0.9-8.6-1.8
		c-7-2.1-13.2-5.2-17.2-8.3c-0.6-0.3-1.8-0.6-3.1-0.3C382.4,5.7,365.2,10.6,358.8,12.5z"/>
	<path class="st0" d="M98.2,291.1l0.3,0.6l0,0c1.8,3.4,5.8,4.6,8.9,2.8l91-47.8l0,0c3.4-1.8,4.6-5.8,2.8-8.9l-0.3-0.6
		c-1.5-3.1-4.9-4.3-8.3-3.1c-0.3,0-0.6,0.3-0.9,0.3L101,282.2C97.6,284,96.4,288,98.2,291.1z"/>
</g>
</svg>
