<svg id="Capa_1" enable-background="new 0 0 510.798 510.798" height="512" viewBox="0 0 510.798 510.798" width="512" xmlns="http://www.w3.org/2000/svg"><g><path d="m273.597 147.624h-273.597l121.798 213.97v115.03h-73.586v30h177.173v-30h-73.586v-115.03zm-51.597 30-85.202 149.678-85.201-149.678z"/><path d="m366.512 85.624-66.064-81.449-23.299 18.898 50.736 62.551h-15.086v421h198v-421zm114.286 30v155.748c-4.095-1.559-9.227-2.748-16.003-2.748-12.585 0-19.532 4.086-24.605 7.071-3.522 2.072-4.98 2.929-9.397 2.929-4.414 0-5.871-.857-9.393-2.929-5.072-2.984-12.02-7.071-24.604-7.071-.789 0-1.555.016-2.3.047l-16.331-153.047zm-132.804 0 17.379 162.864c-.75.09-1.586.136-2.577.136-4.414 0-5.871-.857-9.393-2.929-2.769-1.629-6.106-3.583-10.604-5.025v-155.046zm-5.196 361v-172.513c4.641 2.336 10.815 4.513 19.997 4.513 2.071 0 3.976-.12 5.759-.318l13.329 124.909 29.83-3.183-14.021-131.394c3.732.115 5.226.991 8.496 2.914 5.072 2.984 12.02 7.071 24.604 7.071 12.585 0 19.533-4.087 24.606-7.071 3.522-2.072 4.98-2.929 9.396-2.929 4.417 0 5.875.857 9.397 2.929 1.88 1.106 4.02 2.362 6.605 3.507v171.564h-137.998z"/><path d="m121.798 208.624h30v30h-30z"/></g></svg>