<svg id="Layer_1" enable-background="new 0 0 128 128" height="512" viewBox="0 0 128 128" width="512" xmlns="http://www.w3.org/2000/svg"><path d="m94.067 78.123c-.062-.086-.131-.159-.214-.219-4.627-4.853-10.859-8.175-17.865-9.077 5.894-3.012 10.363-8.426 12.105-14.946.266.069.535.115.807.115 2.45 0 4.369-2.528 4.369-5.756s-1.919-5.757-4.369-5.757c-.003 0-.005.001-.008.001v-6.872c0-.308-.032-.601-.044-.903l7.466-1.104c.752-.111 1.415-.508 1.868-1.119.453-.61.642-1.361.53-2.112l-.405-2.743c-.111-.752-.509-1.416-1.119-1.869-.611-.453-1.36-.642-2.112-.53l-7.306 1.081-.813-5.493-1.577-10.662c-.369-2.493-2.906-4.191-5.671-3.783l-35.924 5.313c-2.757.408-4.7 2.769-4.332 5.263l1.577 10.662.807 5.459c-.001.012-.004.023-.005.035l-7.297 1.079c-1.551.23-2.627 1.679-2.398 3.232l.406 2.742c.11.752.508 1.416 1.118 1.869.496.368 1.084.562 1.691.562.14 0 .28-.01.422-.031l5.9-.873v.751c-.015.014-.026.032-.04.048-2.448.003-4.365 2.53-4.365 5.757 0 3.228 1.919 5.756 4.369 5.756.282 0 .559-.048.834-.121 1.771 6.639 6.368 12.134 12.419 15.113-6.556 1.098-12.375 4.326-16.755 8.924-.075.056-.137.122-.194.198-5.048 5.396-8.129 12.633-8.129 20.518v4.496 15.673c0 1.654 1.346 3 3 3h17.801c-.29.404-.466.895-.466 1.429 0 1.355 1.103 2.458 2.457 2.458h16.188c1.354 0 2.457-1.103 2.457-2.458 0-.534-.176-1.026-.467-1.429h28.403c1.654 0 3-1.346 3-3v-20.173c0-7.876-3.077-15.109-8.119-20.504z" fill="#e6e7e8"/><path d="m70.127 65.642-5.706 10.265.916.897c-1.794 2.669-3.318 4.643-3.318 4.643s-1.524-1.974-3.318-4.643l.916-.897-5.707-10.268c-15.133 1.012-27.096 13.599-27.096 28.988v20.173c0 1.105.895 2 2 2h66.373c1.105 0 2-.895 2-2v-20.173c-.001-15.376-11.945-27.955-27.06-28.985z" fill="#fff"/><path d="m87.588 75.553c-4.525 2.645-7.377 7.512-7.377 12.846v16.894h16.976v-8.161c-.001-8.563-3.706-16.26-9.599-21.579z" fill="#6dc9f7"/><path d="m43.789 103.73v-15.33c0-5.335-2.852-10.201-7.377-12.846-5.893 5.319-9.599 13.015-9.599 21.579v8.161h15.327c.464-.605 1.017-1.137 1.649-1.564z" fill="#6dc9f7"/><path d="m68.769 68.085-4.348 7.822.916.897c-1.794 2.668-3.318 4.643-3.318 4.643s-1.524-1.974-3.318-4.643l.916-.897-4.349-7.822c-7.248.149-13.845 2.945-18.857 7.469 4.525 2.645 7.377 7.512 7.377 12.846v15.331c1.12-.756 2.47-1.197 3.923-1.197h2.081c2.73 0 4.943 2.213 4.943 4.943v3.399c0 3.152-2.555 5.707-5.707 5.707h-1.317c-1.453 0-2.803-.441-3.923-1.197v1.416h24.38v-.861c-.907.427-1.917.674-2.987.674h-1.317c-3.152 0-5.707-2.555-5.707-5.707v-3.399c0-2.73 2.213-4.943 4.943-4.943h2.081c2.259 0 4.264 1.071 5.549 2.729h9.478v-16.895c0-5.335 2.852-10.201 7.377-12.846-5.001-4.517-11.583-7.311-18.816-7.469z" fill="#0089ef"/><path d="m59.077 66.702c0-.139.016-.275.041-.407-1.924-.183-3.779-.602-5.532-1.237l5.49 9.877v-8.233z" fill="#fff"/><path d="m70.81 64.298c-2.234 1.04-4.666 1.723-7.223 1.984.027.136.043.276.043.42v12.559c.504-.704 1.087-1.535 1.707-2.458l-.916-.897 6.35-11.423c.017-.063.027-.123.039-.185z" fill="#fff"/><path d="m54.1 81.305.054-5.174c0-1.513 1.083-2.751 2.407-2.751h.276c1.324 0 2.407 1.238 2.407 2.751l.001.14.372-.364-5.729-10.295c-1.837.1-5.31 1.047-5.31 1.047l3.242 16.875z" fill="#0089ef"/><path d="m70.11 65.669-5.689 10.238 7.797 7.627 3.251-16.923c-1.728-.475-3.519-.793-5.359-.942z" fill="#0089ef"/><path d="m84.9 39.482c-.354 0-.688.1-1.008.244v4.069c0 1.603-.169 3.166-.487 4.675.452.323.954.526 1.495.526 1.861 0 3.369-2.13 3.369-4.757s-1.509-4.757-3.369-4.757z" fill="#fff"/><path d="m38.674 43.795v-4.057c-.328-.151-.672-.256-1.036-.256-1.861 0-3.369 2.13-3.369 4.757s1.508 4.757 3.369 4.757c.551 0 1.061-.208 1.518-.542-.314-1.504-.482-3.061-.482-4.659z" fill="#fff"/><path d="m38.674 36.526v7.27c0 12.486 10.122 22.608 22.608 22.608 12.486 0 22.608-10.122 22.608-22.608v-12.185c0-.604-.031-1.188-.077-1.761z" fill="#fff"/><path d="m61.44 64.512h-.172c-1.205 0-2.19.986-2.19 2.19v8.444c.104.307.167.637.167.985l.254 24.399c.399.55 1.042.912 1.769.912h.172c1.205 0 2.19-.986 2.19-2.191v-32.549c0-1.205-.985-2.19-2.19-2.19z" fill="#ffd7e5"/><path d="m61.798 116.221c-2.128-.829-3.639-2.893-3.639-5.315v-3.399c0-1.32.525-2.512 1.368-3.398.002-.152.007-.234.007-.234l-.289-27.744c0-1.513-1.083-2.751-2.407-2.751h-.276c-1.324 0-2.407 1.238-2.407 2.751l-.289 27.744s.014.287.003.806c.547.795.87 1.756.87 2.795v3.399c0 2.188-1.233 4.087-3.041 5.044-.197.602-.406 1.216-.641 1.853h11.287c-.196-.53-.377-1.047-.546-1.551z" fill="#ffd7e5"/><path d="m65.183 102.565h-2.081c-2.73 0-4.943 2.213-4.943 4.943v3.399c0 3.152 2.555 5.707 5.707 5.707h1.317c3.879 0 7.024-3.145 7.024-7.024.001-3.881-3.144-7.025-7.024-7.025z" fill="#fff"/><g fill="#fa759e"><path d="m64.793 117.771h-16.187c-.802 0-1.458.656-1.458 1.458s.656 1.458 1.458 1.458h16.187c.802 0 1.458-.656 1.458-1.458-.001-.802-.657-1.458-1.458-1.458z"/><path d="m58.518 64.078c-.006.614.528 1.117 1.191 1.122l3.269.026c.664.005 1.206-.488 1.212-1.103.006-.614-.527-1.117-1.191-1.122h-.021l.015-1.652c.008-.85-.73-1.545-1.648-1.552s-1.668.675-1.676 1.525l-.016 1.659c-.627.033-1.13.507-1.135 1.097z"/><path d="m59.167 76.131c-1.445 0-2.617 1.085-2.617 2.423s1.172 2.423 2.617 2.423 2.617-1.085 2.617-2.423-1.172-2.423-2.617-2.423z"/><path d="m59.167 83.005c-1.445 0-2.617 1.085-2.617 2.423s1.172 2.423 2.617 2.423 2.617-1.085 2.617-2.423-1.172-2.423-2.617-2.423z"/><path d="m59.592 89.798c-1.445 0-2.617 1.085-2.617 2.423s1.172 2.423 2.617 2.423 2.617-1.085 2.617-2.423-1.172-2.423-2.617-2.423z"/></g><path d="m47.713 102.533h2.081c2.73 0 4.943 2.213 4.943 4.943v3.399c0 3.152-2.555 5.707-5.707 5.707h-1.317c-3.879 0-7.024-3.145-7.024-7.024 0-3.88 3.145-7.025 7.024-7.025z" fill="#fff"/><path d="m38.259 20.18h44.426v6.552h-44.426z" fill="#fa759e" transform="matrix(.989 -.146 .146 .989 -2.781 9.099)"/><path d="m80.39 6.304 1.577 10.662-43.948 6.499-1.577-10.662c-.29-1.959 1.277-3.8 3.489-4.127l35.924-5.313c2.213-.327 4.245.982 4.535 2.941z" fill="#0089ef"/><path d="m92.167 28.615-60.539 8.953c-1.008.149-1.947-.547-2.096-1.556l-.406-2.743c-.149-1.008.547-1.947 1.556-2.096l60.539-8.953c1.008-.149 1.947.547 2.096 1.556l.406 2.743c.149 1.008-.548 1.947-1.556 2.096z" fill="#0089ef"/><path d="m90.067 74.123c-.062-.086-.131-.159-.214-.219-4.625-4.851-10.854-8.172-17.857-9.076 5.891-3.012 10.34-8.434 12.081-14.951.271.072.545.118.823.118 2.45 0 4.369-2.528 4.369-5.756s-1.919-5.757-4.369-5.757c-.003 0-.006.001-.009.001v-6.872c0-.306-.01-.607-.025-.906l7.448-1.101c.752-.111 1.415-.508 1.868-1.119s.642-1.361.53-2.112l-.405-2.743c-.229-1.553-1.685-2.628-3.232-2.398l-7.305 1.08-.813-5.492-1.578-10.662c-.183-1.235-.89-2.308-1.991-3.021-1.061-.686-2.365-.956-3.679-.763l-35.924 5.313c-1.312.194-2.483.832-3.3 1.794-.849 1.002-1.215 2.233-1.032 3.468l1.577 10.662.812 5.492-7.307 1.081c-1.553.23-2.628 1.68-2.398 3.231l.405 2.743c.209 1.412 1.428 2.429 2.814 2.429.138 0 .277-.01.418-.031l5.9-.873v.751c-.015.014-.026.032-.04.048-2.448.003-4.365 2.53-4.365 5.757 0 3.228 1.919 5.756 4.369 5.756.287 0 .57-.049.849-.125 1.775 6.65 6.375 12.151 12.445 15.125-9.845 1.628-18.293 8.035-22.464 17.261-.228.503-.004 1.096.499 1.323.134.061.273.089.411.089.381 0 .745-.219.912-.588 1.202-2.659 2.796-5.058 4.68-7.164 4.769 2.317 7.818 7.138 7.818 12.483v14.835c-.406.317-.78.671-1.118 1.058h-13.856v-5.17c0-.552-.447-1-1-1s-1 .448-1 1v15.678c0 1.654 1.346 3 3 3h17.801c-.29.404-.466.895-.466 1.429 0 1.355 1.103 2.458 2.457 2.458h16.188c1.354 0 2.457-1.103 2.457-2.458 0-.534-.176-1.026-.467-1.429h28.403c1.654 0 3-1.346 3-3v-20.173c0-7.876-3.078-15.109-8.12-20.504zm6.12 30.17h-14.976v-15.894c0-5.335 3.038-10.148 7.791-12.47 4.468 4.986 7.184 11.556 7.184 18.698v9.666zm-48.474-.76h2.081c2.175 0 3.943 1.769 3.943 3.943v3.399c0 2.596-2.111 4.707-4.707 4.707h-1.317c-3.322 0-6.024-2.703-6.024-6.024s2.702-6.025 6.024-6.025zm4.978-36.767c.219-.025.438-.047.659-.067l3.163 5.686c-1.856.029-3.359 1.695-3.359 3.735l-.049 4.759-.653.639-2.714-14.125c.778-.193 1.928-.457 2.953-.627zm7.013-2.786c.528-.026.944-.46.949-.989l.016-1.66c.003-.291.305-.535.661-.535h.007c.198.001.384.076.511.205.067.068.147.183.146.338l-.016 1.652c-.003.265.111.521.298.71.186.189.45.297.716.299.099.001.153.045.198.112 0 .04-.064.136-.204.113l-3.269-.025c-.1-.001-.154-.046-.174-.065-.012-.012-.025-.03-.025-.047.001-.035.071-.102.186-.108zm6.284 2.944c.625-.125 1.242-.278 1.853-.454.088-.025.175-.052.262-.078.184-.056.37-.105.553-.165l-4.026 7.245v-6.319c.3-.042.599-.093.897-.146.154-.028.308-.052.461-.083zm-.322 8.802 5.003-9.001c1.228.127 2.447.335 3.64.62l-2.722 14.172zm-4.227 24.716h-.172c-.299 0-.564-.121-.773-.303l-.048-4.601c.912-.211 1.689-.745 2.183-1.473v5.187c.001.656-.533 1.19-1.19 1.19zm-1.062-11.557-.003-.244c1.092-.369 1.934-1.215 2.255-2.278v4.015c-.507-.747-1.309-1.294-2.252-1.493zm-.07-6.689-.004-.41c1.126-.356 1.999-1.214 2.327-2.299v5.006c-.328-1.083-1.199-1.94-2.323-2.297zm2.218-15.973c.065.147.105.308.105.479v10.917c-.343-1.135-1.283-2.023-2.484-2.345-.018-.084-.046-.163-.069-.244v-8.328c0-.179.046-.345.117-.498zm-3.358 10.908c.892 0 1.617.638 1.617 1.423s-.726 1.423-1.617 1.423-1.617-.638-1.617-1.423.725-1.423 1.617-1.423zm0 6.874c.892 0 1.617.639 1.617 1.423s-.726 1.423-1.617 1.423-1.617-.638-1.617-1.423.725-1.423 1.617-1.423zm.425 6.793c.892 0 1.617.638 1.617 1.423s-.726 1.423-1.617 1.423-1.617-.639-1.617-1.423.725-1.423 1.617-1.423zm-1.515-19.716-2.444-4.392c.8.198 1.615.353 2.444.466zm-5.548 45.504c1.921-1.181 3.209-3.296 3.209-5.711v-3.399c0-1.124-.32-2.173-.864-3.07.001-.315-.007-.493-.009-.52l.29-27.754c0-.949.645-1.751 1.407-1.751h.275c.524 0 .987.383 1.228.931-1.454.444-2.515 1.722-2.515 3.243 0 1.604 1.178 2.945 2.755 3.313l.003.247c-1.578.368-2.757 1.709-2.757 3.315 0 1.63 1.213 2.992 2.827 3.335l.003.247c-1.397.474-2.405 1.728-2.405 3.211 0 1.507 1.041 2.775 2.473 3.231l.087 8.26c-.858 1.03-1.375 2.354-1.375 3.796v3.399c0 2.521 1.4 4.72 3.462 5.865h-8.153c.022-.067.037-.125.059-.188zm12.655-.973h-1.317c-2.596 0-4.707-2.111-4.707-4.707v-3.399c0-2.174 1.769-3.943 3.942-3.943h2.082c3.322 0 6.024 2.703 6.024 6.024s-2.702 6.025-6.024 6.025zm0-14.049h-1.56c.616-.582 1.006-1.401 1.006-2.313v-19.67c.27-.379.556-.786.861-1.229l6.028 5.896c.189.186.441.285.699.285.1 0 .2-.015.299-.046.352-.11.614-.404.684-.766l3.061-15.94c4.294 1.305 8.146 3.611 11.293 6.641-5.11 2.755-8.344 8.088-8.344 13.975v15.894h-8.014c-1.472-1.667-3.619-2.727-6.013-2.727zm19.715-61.082c1.284 0 2.369 1.72 2.369 3.757 0 2.036-1.085 3.756-2.369 3.756-.122 0-.246-.02-.373-.06.067-.377.102-.759.151-1.139.036-.279.085-.553.11-.835.066-.721.103-1.444.103-2.167v-3.313c.004.001.007.001.009.001zm-2.008-8.871v6.31l-2.656-.758c-.65-2.4-2.486-4.312-4.846-5.056l7.476-1.106c.007.205.026.401.026.61zm-19.793 4.212h-3.641c-.049-.462-.169-.899-.348-1.308l4.708-.696c-.389.586-.643 1.267-.719 2.004zm-25.086-25.049c.502-.592 1.235-.986 2.066-1.109l35.924-5.313c.18-.026.358-.04.535-.04.641 0 1.253.172 1.764.503.612.396 1.003.976 1.1 1.634l1.431 9.672-20.984 3.103-20.984 3.103-1.431-9.672c-.099-.656.107-1.324.579-1.881zm1.143 13.534 20.984-3.103 20.984-3.103.666 4.503-41.97 6.207zm-7.674 12.271c-.458.066-.893-.252-.961-.712l-.405-2.743c-.068-.461.252-.892.713-.96l8.293-1.226h.003l30.828-4.559 21.416-3.167c.042-.006.083-.009.125-.009.412 0 .773.303.836.722l.405 2.743c.033.223-.022.446-.157.627-.135.182-.332.299-.556.333zm10.731.434-2.537.724v-.349zm-4.175 10.915c-.135.045-.269.067-.398.067-1.284 0-2.369-1.72-2.369-3.756 0-2.037 1.085-3.757 2.369-3.757h.036v3.313c0 .725.037 1.449.104 2.171.025.269.072.532.105.798.049.389.085.78.153 1.164zm2.059.102c-.016-.08-.029-.161-.044-.241-.114-.605-.206-1.217-.268-1.838-.006-.06-.008-.12-.014-.18-.059-.651-.095-1.309-.095-1.975v-3.979l2.397-.684c.032 4.458 3.653 8.063 8.119 8.063h1.184c4.485 0 8.122-3.636 8.122-8.122v-1.251h3.573v1.251c0 4.486 3.636 8.122 8.122 8.122h1.184c4.405 0 7.982-3.508 8.11-7.882l2.405.686v3.795c0 .659-.036 1.309-.094 1.953-.006.067-.009.135-.016.202-.061.608-.151 1.208-.261 1.801-.018.094-.033.189-.052.283-1.144 5.722-4.563 10.62-9.262 13.744-.754-8.808-9.044-8.905-9.171-8.905 0 0 0 0-.001 0-.552.002-.997.452-.995 1.004.003.551.449.996 1 .996h.012c.382 0 7.123.122 7.211 8.061-.601.314-1.217.602-1.85.86-.162.066-.322.138-.484.2-.462.175-.934.327-1.41.47-.156.047-.309.102-.466.146-.492.136-.994.246-1.499.347-.15.03-.297.071-.448.098-.055.01-.113.013-.169.022.154-.285.251-.603.254-.945.005-.549-.208-1.07-.6-1.469-.174-.178-.379-.323-.605-.433l.009-.874c.004-.48-.134-.942-.391-1.343 1.434-.614 2.223-1.602 2.268-1.662.334-.44.247-1.067-.192-1.401-.442-.336-1.069-.248-1.401.193-.011.014-1.081 1.355-2.993 1.355-1.939 0-2.931-1.271-2.984-1.342-.325-.442-.945-.542-1.392-.22-.448.323-.549.948-.226 1.396.045.063.842 1.112 2.359 1.726-.227.369-.367.792-.372 1.253l-.009.928c-.676.357-1.135 1.043-1.143 1.828-.003.368.099.721.28 1.036-2.407-.392-4.674-1.191-6.746-2.311.172-7.801 6.922-7.918 7.213-7.919h.001c.55 0 .997-.445 1-.996.002-.552-.443-1.002-.995-1.004-.001 0-.001 0-.001 0-.127 0-8.311.097-9.155 8.737-4.574-3.131-7.896-7.956-9.019-13.58zm-3.674 26.38c3.191-3.071 7.074-5.354 11.353-6.639l3.065 15.951c.07.362.332.656.684.766.099.03.199.045.299.045.258 0 .51-.1.699-.285l.555-.543-.194 18.702c-.901-.551-1.956-.875-3.088-.875h-2.081c-1.032 0-2.017.203-2.924.559v-13.692c-.001-5.897-3.244-11.237-8.368-13.989zm-8.608 40.39v-8.507h12.576c-.447.999-.701 2.101-.701 3.264 0 2.521 1.171 4.771 2.994 6.243h-13.869c-.552 0-1-.448-1-1zm36.979 4.887h-16.187c-.248 0-.457-.209-.457-.458s.209-.458.457-.458h2.45 11.287 2.45c.248 0 .457.209.457.458s-.209.458-.457.458zm30.394-3.887h-24.93c1.8-1.473 2.951-3.709 2.951-6.211 0-1.175-.26-2.289-.716-3.296h23.695v8.507c0 .551-.449 1-1 1z" fill="#3a2c60"/><path d="m26.814 95.627c.553 0 1-.448 1-1 0-3.121.15-4.031 1.151-6.957.179-.522-.1-1.091-.623-1.27-.518-.179-1.09.1-1.27.623-1.07 3.13-1.259 4.267-1.259 7.604.001.553.448 1 1.001 1z" fill="#3a2c60"/><path d="m61.283 51.478c1.969 0 3.57-1.602 3.57-3.571v-1.507c0-.552-.447-1-1-1s-1 .448-1 1v1.507c0 .866-.704 1.571-1.57 1.571s-1.571-.705-1.571-1.571v-1.507c0-.552-.447-1-1-1s-1 .448-1 1v1.507c0 1.969 1.602 3.571 3.571 3.571z" fill="#3a2c60"/></svg>