<?xml version="1.0" encoding="utf-8"?>
<!-- Generator: Adobe Illustrator 25.2.0, SVG Export Plug-In . SVG Version: 6.00 Build 0)  -->
<svg version="1.1" id="Layer_1" xmlns="http://www.w3.org/2000/svg" xmlns:xlink="http://www.w3.org/1999/xlink" x="0px" y="0px"
	 viewBox="0 0 244 169" style="enable-background:new 0 0 244 169;" xml:space="preserve">
<g>
	<path d="M9,98.8c3.8,2.6,10.5,9.5,11.4,24.7c1.1,19.4,8.8,30.6,8.9,30.7c0,0,0.1,0.1,0.1,0.1c4.3,6.9,13.2,12.9,23.3,10.9
		c8.3-1.6,13.9-5.7,16.7-12.2c1.3-3,1.9-6.2,1.8-9.4L57.6,31.5c-2-13.5,21.4-20.4,27.9-22L84.3,6c-8.7,1.6-35.5,7.8-34.4,23.3
		c0,0,0,0,0,0.1l3.2,100.5c0.2,2.5,0.7,9.7-4.3,11.6c-0.4,0.1-0.8,0.2-1.2,0.3c-1.3,0.2-2.6-0.2-3.4-1.1c-1.9-1.9-2.8-5.9-2.3-10.2
		c2.9-22.2-4.8-40.2-7.1-45.1L9,98.8L9,98.8z M52,32.9c-0.4-1.1,0.2-2.3,1.2-2.7c1.1-0.4,2.3,0.2,2.7,1.2s-0.2,2.3-1.2,2.7
		c-0.3,0.1-0.7,0.2-1,0.1C52.9,34.1,52.3,33.6,52,32.9z M54.8,51.7c-1.1-0.2-1.7-1.3-1.8-2.3c0.2-1.1,1.3-1.9,2.5-1.8
		c1.1,0.2,1.9,1.2,1.8,2.4c-0.1,0.7-0.6,1.4-1.3,1.6C55.5,51.7,55.2,51.8,54.8,51.7L54.8,51.7z M56,71.5C56,71.5,56,71.5,56,71.5
		c-1.2-0.2-1.9-1.2-1.8-2.4c0.1-0.5,0.4-1,0.9-1.4c0.5-0.3,1-0.5,1.6-0.4c0,0,0,0,0,0c1.1,0.2,1.9,1.2,1.7,2.4
		c-0.1,0.7-0.6,1.4-1.4,1.6C56.7,71.5,56.3,71.5,56,71.5L56,71.5z M56.5,95c0.1-0.5,0.4-1,0.8-1.4c0.9-0.7,2.2-0.5,2.9,0.5
		c0.7,0.9,0.5,2.2-0.5,2.9s-2.2,0.5-2.9-0.5C56.6,96.1,56.5,95.5,56.5,95z"/>
	<path d="M87.2,5.4l1.4,4c0.4,0.1,0.9,0.1,1.3,0.1c5.8-1,12.1-2.3,15.3-3.1c-0.9-0.1-1.9-0.3-2.8-0.6c-2.3-0.7-4.3-1.7-5.6-2.7
		C96.6,3,96.2,2.9,95.8,3C94.9,3.2,89.3,4.8,87.2,5.4z"/>
	<path d="M2.2,96.3l0.1,0.2c0,0,0,0,0,0c0.6,1.1,1.9,1.5,2.9,0.9l29.7-15.6c0,0,0,0,0,0c1.1-0.6,1.5-1.9,0.9-2.9l-0.1-0.2
		c-0.5-1-1.6-1.4-2.7-1c-0.1,0-0.2,0.1-0.3,0.1L3.1,93.4C2,94,1.6,95.3,2.2,96.3z"/>
</g>
<g>
	<path d="M108.8,94.1l11.4-4.2l2.3,24c0.2,3.4,0.8,6.4,1.7,8.9c0.9,2.5,1.8,3.6,2.7,3.3c0.9-0.3,1.8-1.5,2.8-3.7
		c1-2.1,1.7-4.1,2.2-6.1l0.8-3l4.2,1.8c-0.5,3.7-1.4,7.3-3,10.9c-3,6.8-6.2,10.9-9.8,12.2c-4.2,1.6-7.5-0.9-9.9-7.4
		c-0.4-1.1-0.6-1.9-0.7-2.5c0.2,2.8-0.4,5.5-1.7,8.1c-2.5,5.2-6.3,8.6-11.2,10.5s-9.5,1.6-13.7-0.7c-4.2-2.3-7.2-5.9-9.1-10.9
		c-2.9-7.8-2.8-15.3,0.3-22.6c3.1-7.3,8.1-12.1,14.9-14.7c3.4-1.3,6.6-1.4,9.5-0.3c2.9,1.1,5.3,3,7.1,5.7L108.8,94.1z M98.3,103.3
		c-2.8,1-5,3.2-6.6,6.5c-1.6,3.3-2.4,6.8-2.5,10.7c-0.1,3.8,0.5,7.3,1.6,10.5c1.2,3.2,2.8,5.5,4.9,6.9c2.1,1.4,4.6,1.6,7.5,0.5
		c2.9-1.1,5-3.4,6.4-6.9c2.6-6.7,2.6-13.6,0-20.6C107.1,104,103.3,101.4,98.3,103.3z"/>
	<path d="M153.1,121.6c-1.1,1.1-2.6,3.3-4.5,6.4l-6.1-2c0-1.1,2.9-8.2,8.7-21.2c5.8-13,9-20,9.4-21c-7.9-0.9-13.4-0.7-16.6,0.5
		l-0.7,0.4c2.9,1.3,4.6,2.9,5.3,4.7c0.7,1.8,0.4,3.5-0.7,5.1c-1.1,1.6-2.6,2.7-4.4,3.4c-1.8,0.7-3.6,0.7-5.3,0.1
		c-1.7-0.6-2.9-1.8-3.6-3.7c-1.3-3.5-1-6.6,0.8-9.4c1.8-2.8,4.3-4.7,7.3-5.9c3.1-1.1,7.3-1.8,12.7-2.1c5.4-0.3,9.2-0.8,11.5-1.6
		c2.3-0.8,4.7-2.4,7.4-4.6l4.6,3.2c-0.6,4.6-2.7,7.7-6.4,9c-0.6,0.2-1.5,0.3-2.7,0.2L157,113.8c2.6-1,6.4-1.3,11.4-0.9
		c5,0.4,8.7,0.2,11.1-0.6c-2.1-0.8-3.5-2.1-4.2-4.1c-0.7-1.9-0.6-3.7,0.4-5.4c1-1.7,2.3-2.8,4-3.4c1.7-0.6,3.4-0.6,5.2,0.2
		c1.8,0.8,3.1,2.4,4,4.8c0.9,2.4,0.6,4.8-0.8,7.3s-3.8,4.3-7.2,5.5C174.1,119.7,164.9,121.2,153.1,121.6z"/>
	<path d="M203.8,102.8c-1.1,1.1-2.6,3.3-4.5,6.4l-6.1-2c0-1.1,2.9-8.2,8.7-21.2c5.8-13,9-20,9.4-21c-7.9-0.9-13.4-0.7-16.6,0.5
		l-0.7,0.4c2.9,1.3,4.6,2.9,5.3,4.7c0.7,1.8,0.4,3.5-0.7,5.1c-1.1,1.6-2.6,2.7-4.4,3.4c-1.8,0.7-3.6,0.7-5.3,0.1
		c-1.7-0.6-2.9-1.8-3.6-3.7c-1.3-3.5-1-6.6,0.8-9.4c1.8-2.8,4.3-4.7,7.3-5.9c3.1-1.1,7.3-1.8,12.7-2.1s9.2-0.8,11.5-1.6
		s4.7-2.4,7.4-4.6l4.6,3.2c-0.6,4.6-2.7,7.7-6.4,9c-0.6,0.2-1.5,0.3-2.7,0.2L207.7,95c2.6-1,6.4-1.3,11.4-0.9
		c5,0.4,8.7,0.2,11.1-0.6c-2.1-0.8-3.5-2.1-4.2-4.1c-0.7-1.9-0.6-3.7,0.4-5.4c1-1.7,2.3-2.8,4-3.4c1.7-0.6,3.4-0.6,5.2,0.2
		c1.8,0.8,3.1,2.4,4,4.8c0.9,2.4,0.6,4.8-0.8,7.3s-3.8,4.3-7.2,5.5C224.8,101,215.6,102.4,203.8,102.8z"/>
</g>
<g>
	<path d="M102.8,67.5c0.5,1.4,0.2,2.4-1,2.7c-0.4,0.2-1,0.2-1.5,0.2c0.8,2.3,2.2,4.7,4.3,7.1c0.2,0.6,0,1.2-0.4,1.7
		c-0.4,0.5-0.9,0.9-1.5,1.1c-0.5,0.2-1.2,0.2-2,0.1c-0.6-0.6-1.2-1.7-1.7-3.2c-0.1-0.4-0.4-1.2-0.7-2.2c-0.4-1.1-0.6-1.8-0.8-2.2
		c-0.3-0.8-0.5-1.3-0.8-1.5c-0.4,0.1-1,0.3-1.7,0.7c-0.7,0.3-1.2,0.6-1.5,0.7c-1.9,0.7-4.9,2-8.8,3.9c-4.5,2.2-7,3.8-7.5,4.7
		c-0.3,0.5-0.2,2.2,0.4,5.3c0.5,2.5,0.8,4.3,1.2,5.5c-0.1,0.4-0.4,0.7-0.8,0.8c-0.6,0.2-1.3,0.1-2.3-0.2c-0.9-0.3-1.5-0.8-1.7-1.3
		c-0.1-0.3-0.1-0.9-0.1-2c0-1.1,0-1.7,0-2c-0.9-5.3-1.3-11.3-1.2-18c0.2-18.9,1.9-28.9,5.2-30c3.5-1.2,7.6,2.3,12.5,10.5
		c1.7,2.9,4.5,8.5,8.4,17c0.3,0.1,1.1,0.2,2.3,0.1C102.1,66.7,102.6,67,102.8,67.5z M95.6,67.8c-3.8-7.5-6.2-12.1-7-13.6
		c-4.1-7-6.9-10.3-8.6-9.7c-1.8,0.7-3,5-3.4,12.8c-0.1,4.9-0.2,9.7-0.2,14.5c-0.1,0.7-0.1,1.7,0,2.9c0.2,1.1,0.7,1.6,1.5,1.3
		c0.3-0.1,1.6-0.8,3.9-2.1C83.5,72.9,88.2,70.8,95.6,67.8z"/>
	<path d="M114.3,77.1c0.4,1.2,0,2-1.3,2.4c-2,0.7-4.3-3.1-7.1-11.2L95.8,37.9c-0.2-0.5-0.5-1.2-0.9-2.1c-0.4-0.9-0.7-1.5-0.9-2
		c0.6-0.9,1.3-1.5,1.8-1.7c0.6-0.2,1.3-0.2,2.1,0c0.8,0.2,1.3,0.7,1.5,1.3c0.2,0.5,0.2,1.1,0.3,1.9c0,1,0.1,1.6,0.1,1.8
		c0.5,3.2,1.7,7.6,3.6,13.1c3,8.9,4.4,13.1,4.3,12.8c2,5.5,3.8,9.5,5.3,12.1c0,0.1,0.3,0.4,0.6,0.8
		C113.9,76.5,114.2,76.8,114.3,77.1z"/>
	<path d="M123.2,74c0.4,1.2,0,2-1.3,2.4c-2,0.7-4.3-3.1-7.1-11.2l-10.1-30.4c-0.2-0.5-0.5-1.2-0.9-2.1c-0.4-0.9-0.7-1.5-0.9-2
		c0.6-0.9,1.3-1.5,1.8-1.7c0.6-0.2,1.3-0.2,2.1,0c0.8,0.2,1.3,0.7,1.5,1.3c0.2,0.5,0.2,1.1,0.3,1.9c0,1,0.1,1.6,0.1,1.8
		c0.5,3.2,1.7,7.6,3.6,13.1c3,8.9,4.4,13.1,4.3,12.8c2,5.5,3.8,9.5,5.3,12.1c0,0.1,0.3,0.4,0.6,0.8C122.9,73.4,123.1,73.8,123.2,74z
		"/>
	<path d="M147.9,42.7c-0.3,0.4-1,0.9-2.3,1.5c-1.4,0.7-2.2,1.1-2.4,1.3c0.1,0.5,1,3,2.5,7.5c1.2,3.5,2,5.9,2.5,7
		c0.2,0.5,0.5,1.2,1.1,2.2c0.6,1,1,1.8,1.2,2.4c0.1,0.4,0,0.8-0.3,1.3c-0.3,0.5-0.7,0.8-1,1c-0.9,0.3-1.9-0.4-3.1-2
		c-0.8-1.2-1.4-2.4-1.8-3.7c-2.2-6.3-3.7-11-4.8-14c-0.3-0.1-1.3,0.2-3,1c-1.3,0.7-2.2,0.4-2.6-0.8c-0.6-1.7,1-3.1,4.7-4.2
		l-3.3-12.5c0-0.1-0.2-0.3-0.4-0.6c-0.2-0.3-0.3-0.4-0.4-0.6c-0.1-0.3,0-0.6,0.3-1c0.3-0.4,0.7-0.6,1.2-0.7c1.6-0.4,2.7,0.1,3.2,1.6
		c0.4,1.1,0.8,2.9,1.2,5.2c0.5,2.4,0.9,4.1,1.2,5.2c0.2,0.5,0.4,1,0.7,1.5l3.6-1.5c1.3-0.4,2.1-0.1,2.4,0.8
		C148.4,41.4,148.3,42.1,147.9,42.7z"/>
	<path d="M177.1,58.5c-0.2,0.5-0.9,0.9-1.8,1.2c-0.5,0.2-1.1,0-1.9-0.4c-1.3-3.9-2.4-6.9-3.1-9.2c-3.9-11.4-7.7-16.5-11.5-15.2
		c-1.6,0.5-2.6,1.9-3.1,4.2c-0.4,1.9-0.3,3.8,0.3,5.5c0.1,0.2,0.1,0.5,0.1,0.9c0,0.4,0.1,0.7,0.1,0.9l2.9,8.6
		c0.3,0.8,0.7,1.8,1.5,3.2c0.7,1.4,1.2,2.4,1.4,3.1c0.2,0.7-0.2,1.3-1.3,1.6c-0.8,0.3-1.5,0.1-2.3-0.4c-0.8-0.5-1.3-1.2-1.5-2
		l-13.7-41.7c-0.2-0.2-0.3-0.5-0.4-0.8c-0.3-0.8,0-1.4,0.9-1.7c0.4-0.2,1.2-0.1,2.3,0.2c1.1,0.3,1.7,0.7,1.8,1.1
		c0.4,1.1,0.7,2.7,0.9,4.9c0.3,2.2,0.6,3.8,0.9,4.8c0,0.1,1.1,3.1,3.2,9c1.2-2,2.2-3.2,3.1-3.5c1.4-0.5,3.3-0.7,5.6-0.5
		c4.5,0.3,7.9,3.9,10.2,10.8L177.1,58.5z"/>
	<path d="M201.6,50.3c0.2,0.6-0.2,1.1-1.2,1.4c-1.1,0.4-1.9,0.1-2.4-0.7c-0.1-0.1-0.4-1-1-2.6c-0.2-0.4-0.3-0.8-0.6-1
		c-1.9,2.7-4.3,4.5-7.2,5.5c-2,0.7-4.2,0.8-6.4,0.3c-2.6-0.5-4.2-1.7-4.8-3.6c-0.6-1.8,0-4.1,2-6.7c1.8-2.4,3.7-4,5.6-4.6l6.7-2.3
		c0.2-0.4,0.2-0.9-0.1-1.6c-1-3-2-5.2-3.1-6.6c-1.7-2.3-3.7-3-6.1-2.2c-1.7,0.6-2.9,2.2-3.6,4.8c-0.6,2.4-0.6,4.5,0,6.3
		c0,0.1,0.1,0.2,0.1,0.4c0.1,0.2,0.1,0.3,0.1,0.3c0.1,0.4,0,0.6-0.4,0.7c-0.4,0.2-1,0.1-1.8-0.3c-0.7-0.4-1.2-0.7-1.3-1.1
		c-0.4-1.3-0.6-3-0.5-5.1c0.1-2.2,0.5-3.9,1-5.2c0.7-1.6,1.9-2.7,3.6-3.2c2.6-0.9,5.2-0.9,7.9,0c2.9,1,4.8,2.7,5.7,5.1L201.6,50.3z
		 M194.3,40.8c-0.6-1.8-2.3-2.2-5.1-1.3c-2.2,0.7-4,1.8-5.4,3.1c-1.8,1.7-2.3,3.6-1.7,5.5c0.4,1.2,1.3,2,2.7,2.3
		c1.1,0.3,2.4,0.2,3.7-0.3c1.9-0.7,3.6-1.9,4.9-3.8C194.7,44.6,195,42.7,194.3,40.8z"/>
	<path d="M209.9,21.6c-0.3,0.4-1,0.9-2.3,1.5c-1.4,0.7-2.2,1.1-2.4,1.3c0.1,0.5,1,3,2.5,7.5c1.2,3.5,2,5.9,2.5,7
		c0.2,0.5,0.5,1.2,1.1,2.2c0.6,1,1,1.8,1.2,2.4c0.1,0.4,0,0.8-0.3,1.3c-0.3,0.5-0.7,0.8-1,1c-0.9,0.3-1.9-0.4-3.1-2
		c-0.8-1.2-1.4-2.4-1.8-3.7c-2.2-6.3-3.7-11-4.8-14c-0.3-0.1-1.3,0.2-3,1c-1.3,0.7-2.2,0.4-2.6-0.8c-0.6-1.7,1-3.1,4.7-4.2
		l-3.3-12.5c0-0.1-0.2-0.3-0.4-0.6c-0.2-0.3-0.3-0.4-0.4-0.6c-0.1-0.3,0-0.6,0.3-1c0.3-0.4,0.7-0.6,1.2-0.7c1.6-0.4,2.7,0.1,3.2,1.6
		c0.4,1.1,0.8,2.9,1.2,5.2c0.4,2.4,0.9,4.1,1.2,5.2c0.2,0.5,0.4,1,0.7,1.5l3.6-1.5c1.3-0.4,2.1-0.1,2.4,0.8
		C210.5,20.3,210.4,21,209.9,21.6z"/>
</g>
</svg>
